<svg xmlns="http://www.w3.org/2000/svg" xmlns:xlink="http://www.w3.org/1999/xlink" version="1.1" x="0px" y="0px" viewBox="0 0 100 100" style="enable-background:new 0 0 100 100;" xml:space="preserve"><g><path d="M79.5869141,37.1269531c2.3476562-13.4677734-8.5107422-17.6220703-11.2099609-18.4375   c-4.3261719-5.8642578-10.84375-6.8095703-17.5400391-2.5048828c-0.5175781,0.3320312-1.1572266,0.3320312-1.6728516,0   c-6.6982422-4.3056641-13.2148438-3.359375-17.5410156,2.5048828c-0.5523682,0.1668701-1.4491577,0.4768677-2.50177,0.9745483   c-0.043335,0.0155029-0.086731,0.0259399-0.1300659,0.0420532c-0.1307373,0.0482788-0.2460938,0.1177368-0.3538818,0.1954956   c-4.031189,2.0457153-9.8241577,6.7817383-8.2944336,16.7492676c0.0046997,0.0328369,0.0036621,0.0652466,0.0106201,0.0982056   c0.0022583,0.0105591,0.0060425,0.0194702,0.0083008,0.0300293c0.0186157,0.1170654,0.0306396,0.2293701,0.0512695,0.3479004   c-2.7402344,2.3642578-11.2714844,11.2578125-3.6220703,24.9257812c-1.03125,4.9248047-0.3779297,13.9990234,8.7900391,17.2958984   c1.0087891,1.7919922,4.4814453,7.2089844,10.3320312,8.7460938c3.9785156,1.0439453,8.1601562,0.0859375,12.4355469-2.8515625   c1.0039062-0.6894531,2.2988281-0.6894531,3.3027344,0c3.1591797,2.1699219,6.2675781,3.2597656,9.2802734,3.2597656   c1.0644531,0,2.1171875-0.1357422,3.1552734-0.4082031c5.8505859-1.5371094,9.3232422-6.9541016,10.3320312-8.7460938   c9.1679688-3.296875,9.8212891-12.3710938,8.7900391-17.2958984   C90.8583984,48.3847656,82.3271484,39.4912109,79.5869141,37.1269531z M74.0604248,76.2619629   c-0.0223389-0.4290161-0.0628662-0.8595581-0.1434326-1.2932129c-0.753418-4.0491943-3.8909302-7.1779785-5.6375122-8.6478882   c0.9816895-1.6925049,1.6636963-3.899292,1.758606-6.7935181c0.0273438-0.8271484-0.6220703-1.5205078-1.4501953-1.5478516   c-0.8144531-0.0214844-1.5205078,0.6230469-1.5478516,1.4501953c-0.3037109,9.2539062-7.9667969,9.3964844-8.3232422,9.3974609   c-0.0019531,0-0.0039062,0-0.0058594,0c-0.8232422,0-1.4941406,0.6650391-1.5,1.4892578   c-0.0058594,0.828125,0.6611328,1.5048828,1.4892578,1.5107422c0.0009766,0,0.0009766,0,0.0019531,0   c0.1263428,0,4.4487305-0.0499268,7.7213745-3.1474609c1.4414062,1.2236328,3.9696655,3.7507935,4.5432739,6.8378906   c0.3450317,1.8525391-0.0734863,3.6054077-1.2751465,5.3568115c-1.4730835,1.7221069-3.616333,3.595459-6.3674316,4.3179932   c-3.0986328,0.8164062-6.4521484-0.0029297-9.9736328-2.421875c-2.0351562-1.3984375-4.6660156-1.3984375-6.7011719,0   c-3.515625,2.4150391-6.8662109,3.2314453-9.9570312,2.4267578c-3.7783203-0.9855347-6.4316406-4.1738892-7.7555542-6.1369019   c-0.2946777-0.7312622-1.8416138-4.8756104-0.4348755-8.0886841c0.7060547-1.6103516,2.0380859-2.734375,4.0742188-3.4365234   c1.5799561-0.5447998,2.9470215-0.5878906,4.1573486-0.1343384c0.2184448,0.1135254,0.4379272,0.2177734,0.6590576,0.3045044   c2.6430664,1.4682617,3.6221313,5.1084595,3.6308594,5.1413574c0.2041016,0.8027344,1.0185547,1.2910156,1.8232422,1.0830078   c0.8027344-0.2041016,1.2880859-1.0205078,1.0830078-1.8232422c-0.0349731-0.1373291-0.6253662-2.3709106-2.192627-4.4463501   c0.5883789-0.2639771,1.1432495-0.6278687,1.6350098-1.1141968c1.7841797-1.7636719,2.3037109-4.5009766,1.2353516-6.5068359   c-0.3896484-0.7324219-1.3007812-1.0068359-2.0292969-0.6191406c-0.7314453,0.3896484-1.0078125,1.2978516-0.6191406,2.0292969   c0.4453125,0.8359375,0.1396484,2.1376953-0.6962891,2.9638672c-0.4358521,0.4315796-1.3198242,1.0159302-2.6276245,0.5591431   c-0.2844849-0.1471558-0.5750732-0.2736816-0.8705444-0.3838501c-0.0023193-0.0007324-0.0045776-0.001709-0.006897-0.0023804   c-1.8552856-0.6898193-3.9211426-0.6585083-6.15802,0.1132202c-2.8398438,0.9775391-4.8085938,2.6894531-5.8525391,5.0859375   c-0.8787842,2.0180054-0.9346313,4.1968384-0.7045898,6.0548706c-7.5319214-3.923645-5.3102417-13.2280273-5.2045898-13.6505737   c0.0976562-0.3818359,0.0410156-0.7880859-0.1582031-1.1279297C13.2601318,50.0839844,18.713562,42.861084,21.5137939,40.151123   c0.7105103,1.460022,1.6646729,2.6641846,2.8414917,3.6295776c-0.9660034,1.557251-2.2591553,4.3165283-1.6541138,7.2710571   c0.5410156,2.6474609,2.4326172,4.7958984,5.6201172,6.3857422c0.2148438,0.1074219,0.4433594,0.1582031,0.6689453,0.1582031   c0.5507812,0,1.0810547-0.3037109,1.3427734-0.8300781c0.3701172-0.7412109,0.0693359-1.6425781-0.671875-2.0117188   c-2.3154297-1.1552734-3.6669922-2.5986328-4.0185547-4.2900391c-0.4096069-1.973938,0.5582275-3.9714966,1.2652588-5.1062012   c1.0907593,0.4752808,2.2994385,0.8217163,3.6400146,1.0212402c0.0742188,0.0117188,0.1494141,0.0166016,0.2226562,0.0166016   c0.7304688,0,1.3710938-0.5341797,1.4814453-1.2792969c0.1220703-0.8193359-0.4433594-1.5820312-1.2626953-1.7041016   c-5.6061401-0.835144-7.0600586-4.2944946-7.6887817-7.2341309C22.0605469,27.9540405,26.75,24.1479492,29.9989624,22.5273438   c0.0110474-0.0038452,0.0222778-0.0046387,0.0332642-0.0087891c1.5800781-0.5830078,3.0878906-0.6074219,4.1425781-0.0683594   c0.8271484,0.4238281,1.3837891,1.1865234,1.6992188,2.3310547c0.1845703,0.6650391,0.7880859,1.1005859,1.4453125,1.1005859   c0.1328125,0,0.2666016-0.0175781,0.4003906-0.0537109c0.7988281-0.2207031,1.2666016-1.046875,1.046875-1.8457031   c-0.5380859-1.9443359-1.6523438-3.3974609-3.2246094-4.2021484c-0.2210693-0.1133423-0.4515381-0.2125244-0.689209-0.2988892   c1.9539795-2.1831055,4.0870361-3.0048218,6.1726074-3.0048218c2.3447266,0,4.6259766,1.0166016,6.5166016,2.2314453   c1.4921875,0.9589844,3.4228516,0.9599609,4.9169922,0C59.5,14.1806641,63.8349609,17.3701172,66.2304688,20.8447266   c0.2158203,0.3134766,0.5439453,0.5332031,0.9160156,0.6142578c0.4594727,0.0994873,10.4589233,2.4157715,9.7136841,13.2171021   c-0.1086426,0.9584351-1.126709,3.3822021-3.3875122,4.7213745c-2.2467651,1.3312378-5.0550537,1.164978-8.3497925-0.449707   c0.8594971-2.50177,0.2758179-5.2805786-1.5310669-6.8325195c-0.6308594-0.5419922-1.5761719-0.4677734-2.1152344,0.1601562   c-0.5400391,0.6279297-0.4677734,1.5751953,0.1601562,2.1152344c0.9433594,0.8105469,1.1669922,2.5585938,0.5087891,3.9794922   c-0.4140625,0.8955078-1.5097656,2.3369141-4.1679688,1.9091797c-0.8125-0.1298828-1.5869141,0.4257812-1.7177734,1.2451172   c-0.1308594,0.8183594,0.4267578,1.5869141,1.2451172,1.7177734c0.4755859,0.0751953,0.9384766,0.1132812,1.3876953,0.1132812   c1.8587036-0.0006714,3.4641113-0.6518555,4.6502686-1.8356934c2.5432739,1.2875366,4.7310181,1.7692871,6.5645752,1.7692871   c0.0976562,0,0.1815796-0.0172119,0.2772827-0.0198364c0.6782227,0.8152466,1.8222046,2.7566528,0.1348267,5.2620239   c-0.4628906,0.6875-0.28125,1.6191406,0.40625,2.0820312c0.2568359,0.1728516,0.5478516,0.2558594,0.8369141,0.2558594   c0.4814453,0,0.9550781-0.2324219,1.2451172-0.6621094c1.9904175-2.9553833,1.552002-5.6733398,0.555603-7.5563965   c0.5267944-0.2011108,1.0193481-0.4237671,1.4385376-0.6721191c1.1366577-0.6732178,2.050354-1.5477905,2.7814331-2.4746704   c2.3857422,2.0148315,9.5941162,9.4900513,2.5369263,21.5576782c-0.1982422,0.3378906-0.2548828,0.7441406-0.1591797,1.125   C80.2716675,62.6278687,82.6620483,72.6341553,74.0604248,76.2619629z"/><path d="M60.4091797,53.4990234c-1.1832886,0.3927002-2.7867432,1.3944702-3.9326782,3.1136475   c-1.9632568,0.1940308-3.3853149-0.0493164-4.1171265-0.7093506C51.7646484,55.3662109,51.5,54.4697266,51.5,52.9970703V25.6357422   c0-0.828125-0.671875-1.5-1.5-1.5s-1.5,0.671875-1.5,1.5v15.8283081c-1.0341187-0.6804199-2.2997437-1.0463257-3.784668-1.0952759   c0.2680054-1.3361206,0.2799683-2.8960571-0.1254883-4.7144775c-0.1796875-0.8085938-0.9824219-1.3193359-1.7900391-1.1376953   c-0.8085938,0.1796875-1.3183594,0.9814453-1.1376953,1.7900391c1.2607422,5.6572266-2.6162109,7.2050781-3.0722656,7.3662109   c-0.7792969,0.2646484-1.2001953,1.109375-0.9404297,1.8925781c0.2089844,0.6298828,0.7949219,1.0273438,1.4238281,1.0273438   c0.15625,0,0.3154297-0.0244141,0.4726562-0.0761719c1.1827393-0.3929443,2.7850952-1.3942871,3.9309082-3.1118774   c1.6785889-0.1647949,2.9332886,0.111145,3.7263184,0.8286743C48.2753906,45.2001953,48.5,46.9580078,48.5,48.2617188v28.2451172   c0,0.828125,0.671875,1.5,1.5,1.5s1.5-0.671875,1.5-1.5v-17.609436c1.003418,0.5140381,2.2283325,0.7832642,3.7236328,0.7832642   c0.0026855,0,0.0058594-0.0004883,0.0085449-0.0004883c-0.2611694,1.3287354-0.2689209,2.8781128,0.1330566,4.6811523   c0.1552734,0.6992188,0.7753906,1.1738281,1.4628906,1.1738281c0.1074219,0,0.2177734-0.0117188,0.3271484-0.0361328   c0.8085938-0.1796875,1.3183594-0.9814453,1.1376953-1.7900391c-1.2607422-5.65625,2.6142578-7.2041016,3.0712891-7.3662109   c0.7802734-0.2646484,1.2011719-1.109375,0.9414062-1.8925781C62.0449219,53.6650391,61.1992188,53.2363281,60.4091797,53.4990234z   "/></g></svg>
